<?xml version="1.0" encoding="utf-8"?>
<!-- Generator: Adobe Illustrator 16.0.0, SVG Export Plug-In . SVG Version: 6.00 Build 0)  -->
<!DOCTYPE svg PUBLIC "-//W3C//DTD SVG 1.1//EN" "http://www.w3.org/Graphics/SVG/1.1/DTD/svg11.dtd" [
	<!ENTITY ns_extend "http://ns.adobe.com/Extensibility/1.0/">
	<!ENTITY ns_ai "http://ns.adobe.com/AdobeIllustrator/10.0/">
	<!ENTITY ns_graphs "http://ns.adobe.com/Graphs/1.0/">
	<!ENTITY ns_vars "http://ns.adobe.com/Variables/1.0/">
	<!ENTITY ns_imrep "http://ns.adobe.com/ImageReplacement/1.0/">
	<!ENTITY ns_sfw "http://ns.adobe.com/SaveForWeb/1.0/">
	<!ENTITY ns_custom "http://ns.adobe.com/GenericCustomNamespace/1.0/">
	<!ENTITY ns_adobe_xpath "http://ns.adobe.com/XPath/1.0/">
]>
<svg version="1.1" id="Шар_1" xmlns:x="&ns_extend;" xmlns:i="&ns_ai;" xmlns:graph="&ns_graphs;"
	 xmlns="http://www.w3.org/2000/svg" xmlns:xlink="http://www.w3.org/1999/xlink" x="0px" y="0px" width="89.997px"
	 height="100.079px" viewBox="0 0 89.997 100.079" enable-background="new 0 0 89.997 100.079" xml:space="preserve">
<metadata>
	<sfw  xmlns="&ns_sfw;">
		<slices></slices>
		<sliceSourceBounds  height="100.079" width="89.997" y="-671.396" x="295.94" bottomLeftOrigin="true"></sliceSourceBounds>
	</sfw>
</metadata>
<path fill="#008BBC" d="M61.133,24.987c-0.199-0.614-0.744-1.052-1.387-1.113l-9.465-0.914l-3.794-8.72
	c-0.258-0.593-0.842-0.976-1.488-0.976s-1.229,0.383-1.488,0.976l-3.794,8.721l-9.466,0.913c-0.643,0.063-1.187,0.5-1.387,1.113
	c-0.2,0.614-0.016,1.288,0.468,1.717l7.121,6.303l-2.056,9.285c-0.14,0.63,0.107,1.283,0.63,1.663
	c0.512,0.371,1.23,0.407,1.777,0.086l8.195-4.825l8.194,4.824c0.546,0.321,1.267,0.285,1.776-0.086
	c0.523-0.38,0.771-1.032,0.631-1.663l-2.056-9.285l7.121-6.302C61.149,26.275,61.333,25.602,61.133,24.987z M50.679,31.209
	c-0.441,0.391-0.636,0.991-0.508,1.566l1.456,6.577l-5.804-3.418c-0.499-0.293-1.145-0.293-1.646,0l-5.804,3.418l1.457-6.577
	c0.127-0.575-0.068-1.175-0.509-1.566l-5.044-4.463l6.705-0.648c0.586-0.057,1.097-0.427,1.332-0.967L45,18.954l2.688,6.177
	c0.235,0.54,0.745,0.91,1.332,0.967l6.705,0.648L50.679,31.209z"/>
<g>
	<polygon fill="#005066" points="45.04,62.375 45.04,62.376 45.04,62.375 	"/>
	<path fill="#005066" d="M89.997,26.836V9.581c0-0.895-0.728-1.622-1.622-1.622H73.019V1.622C73.019,0.728,72.291,0,71.396,0H18.602
		c-0.895,0-1.623,0.728-1.623,1.622v6.337H1.623C0.728,7.959,0,8.687,0,9.581v17.255c0,6.425,4.377,12.479,12.326,17.048
		c2.228,1.283,4.93,3.849,7.287,6.151l0.102,0.142c1.216,2.543,2.798,4.874,4.7,6.93c2.249,2.44,4.877,4.439,7.813,5.941l0.272,0.14
		v10.861c0,0.895,0.728,1.622,1.623,1.622h3.949v8.959H28.063c-4.087,0-7.685,2.899-8.553,6.894l-1.432,6.589
		c-0.105,0.481,0.013,0.979,0.322,1.362c0.31,0.384,0.77,0.604,1.263,0.604h50.672c0.493,0,0.954-0.221,1.264-0.604
		c0.31-0.384,0.427-0.88,0.321-1.362l-1.432-6.589c-0.868-3.994-4.465-6.894-8.553-6.894H51.927v-8.959h3.949
		c0.895,0,1.622-0.728,1.622-1.622V63.188l0.272-0.14c2.934-1.501,5.562-3.499,7.809-5.937c1.905-2.06,3.488-4.393,4.704-6.935
		l0.102-0.142c2.357-2.303,5.059-4.866,7.285-6.15C85.619,39.316,89.997,33.262,89.997,26.836z M16.499,42.835
		c-0.93-0.731-1.766-1.309-2.555-1.765C7.045,37.105,3.245,32.05,3.245,26.836V11.204h13.734v26.896
		c0,1.423,0.109,2.858,0.323,4.267l0.191,1.25L16.499,42.835z M61.935,87.876c2.573,0,4.836,1.824,5.382,4.337l1.005,4.621H21.675
		l1.005-4.621c0.547-2.513,2.811-4.337,5.382-4.337H61.935z M41.315,84.63v-8.959h7.367v8.959H41.315z M54.253,72.427H35.744v-7.862
		l0.654,0.211c2.625,0.848,5.376,1.299,8.178,1.34c0.147,0.005,0.279,0.005,0.422,0.005c0.142-0.006,0.275,0,0.413-0.005
		c2.812-0.041,5.564-0.492,8.188-1.34l0.654-0.212V72.427z M69.773,38.101c0,3.613-0.76,7.097-2.26,10.353
		c-1.089,2.364-2.542,4.537-4.317,6.457c-2.266,2.456-4.954,4.399-7.99,5.772c-3.099,1.405-6.415,2.142-9.854,2.188
		c-0.118,0.005-0.194,0.006-0.271,0.006l-0.388-0.004c-3.483-0.048-6.8-0.784-9.902-2.19c-3.035-1.373-5.724-3.316-7.992-5.775
		c-1.772-1.915-3.224-4.087-4.314-6.453c-1.5-3.256-2.261-6.739-2.261-10.353V3.245h49.55V38.101z M76.051,41.073
		c-0.786,0.452-1.621,1.028-2.552,1.761l-0.994,0.782l0.191-1.25c0.214-1.405,0.323-2.84,0.323-4.266V11.204h13.734v15.632
		C86.752,32.05,82.952,37.105,76.051,41.073z"/>
</g>
</svg>
