<?xml version="1.0" encoding="utf-8"?>
<!-- Generator: Adobe Illustrator 16.0.0, SVG Export Plug-In . SVG Version: 6.00 Build 0)  -->
<!DOCTYPE svg PUBLIC "-//W3C//DTD SVG 1.1//EN" "http://www.w3.org/Graphics/SVG/1.1/DTD/svg11.dtd">
<svg version="1.1" id="Шар_1" xmlns="http://www.w3.org/2000/svg" xmlns:xlink="http://www.w3.org/1999/xlink" x="0px" y="0px"
	 width="92px" height="92px" viewBox="0 0 92 92" enable-background="new 0 0 92 92" xml:space="preserve">
<g>
	<path fill="#005066" d="M69,28.98V15.333h5.52c1.994,0,3.681-1.994,3.681-4.6v-9.2C78.2,0.613,77.587,0,76.666,0H42.934
		C42.013,0,41.4,0.613,41.4,1.533v9.2c0,2.606,1.687,4.6,3.68,4.6h5.52V28.98c-13.646,4.14-23,16.56-23,30.82
		C27.6,77.587,42.013,92,59.8,92S92,77.587,92,59.801C92,45.54,82.647,32.966,69,28.98z M44.467,10.733V9.2h21.467V6.133H44.467
		V3.067h30.666v7.667c0,0.92-0.459,1.534-0.613,1.534h-7.053H52.134H45.08C44.927,12.267,44.467,11.653,44.467,10.733z M59.8,88.934
		c-16.1,0-29.134-13.033-29.134-29.133c0-13.188,8.895-24.841,21.773-28.061c0.768-0.153,1.228-0.767,1.228-1.534V15.333h12.267
		v14.873c0,0.768,0.613,1.381,1.227,1.534c12.727,3.22,21.773,14.873,21.773,28.061C88.934,75.9,75.899,88.934,59.8,88.934z"/>
	<path fill="#008BBC" d="M82.8,58.268h-46c-0.92,0-1.533,0.612-1.533,1.533c0,13.492,11.04,24.532,24.533,24.532
		s24.533-11.04,24.533-24.532C84.333,58.88,83.721,58.268,82.8,58.268z M59.8,81.267c-11.346,0-20.7-8.74-21.467-19.933h42.934
		C80.347,72.526,71.146,81.267,59.8,81.267z"/>
	<path fill="#005066" d="M6.134,87.4V52.133h18.399v-3.066H3.066V46H27.6v-3.067H1.533C0.614,42.933,0,43.546,0,44.467V50.6
		c0,0.92,0.614,1.533,1.533,1.533h1.533V87.4c0,2.605,1.994,4.6,4.601,4.6h30.666v-3.066H7.667C6.747,88.934,6.134,88.32,6.134,87.4
		z"/>
	<polygon fill="#008BBC" points="18.399,64.4 18.399,61.334 13.8,61.334 13.8,56.733 10.733,56.733 10.733,84.333 13.8,84.333 
		13.8,79.732 18.399,79.732 18.399,76.666 13.8,76.666 13.8,72.066 18.399,72.066 18.399,69 13.8,69 13.8,64.4 	"/>
	<rect x="46" y="64.4" fill="#008BBC" width="3.066" height="3.066"/>
	<rect x="47.533" y="47.533" fill="#008BBC" width="3.066" height="3.066"/>
	<rect x="59.8" y="49.066" fill="#008BBC" width="3.067" height="3.066"/>
	<rect x="55.2" y="38.333" fill="#008BBC" width="3.066" height="3.067"/>
	<rect x="4.6" y="35.267" fill="#008BBC" width="3.067" height="3.066"/>
	<rect x="23" y="35.267" fill="#008BBC" width="3.066" height="3.066"/>
	<rect x="13.8" y="27.6" fill="#008BBC" width="3.067" height="3.067"/>
	<rect x="21.466" y="18.4" fill="#008BBC" width="3.067" height="3.067"/>
	<rect x="6.134" y="15.333" fill="#008BBC" width="3.066" height="3.067"/>
	<rect x="67.467" y="44.467" fill="#008BBC" width="3.067" height="3.066"/>
	<rect x="76.666" y="52.133" fill="#008BBC" width="3.067" height="3.067"/>
	<rect x="38.333" y="52.133" fill="#008BBC" width="3.067" height="3.067"/>
	<rect x="50.6" y="70.533" fill="#008BBC" width="3.067" height="3.066"/>
	<rect x="58.267" y="65.934" fill="#008BBC" width="3.067" height="3.066"/>
	<rect x="58.267" y="75.133" fill="#008BBC" width="3.067" height="3.066"/>
	<rect x="65.934" y="70.533" fill="#008BBC" width="3.066" height="3.066"/>
	<rect x="70.534" y="64.4" fill="#008BBC" width="3.065" height="3.066"/>
</g>
</svg>
