<?xml version="1.0" encoding="utf-8"?>
<!-- Generator: Adobe Illustrator 16.0.0, SVG Export Plug-In . SVG Version: 6.00 Build 0)  -->
<!DOCTYPE svg PUBLIC "-//W3C//DTD SVG 1.1//EN" "http://www.w3.org/Graphics/SVG/1.1/DTD/svg11.dtd" [
	<!ENTITY ns_extend "http://ns.adobe.com/Extensibility/1.0/">
	<!ENTITY ns_ai "http://ns.adobe.com/AdobeIllustrator/10.0/">
	<!ENTITY ns_graphs "http://ns.adobe.com/Graphs/1.0/">
	<!ENTITY ns_vars "http://ns.adobe.com/Variables/1.0/">
	<!ENTITY ns_imrep "http://ns.adobe.com/ImageReplacement/1.0/">
	<!ENTITY ns_sfw "http://ns.adobe.com/SaveForWeb/1.0/">
	<!ENTITY ns_custom "http://ns.adobe.com/GenericCustomNamespace/1.0/">
	<!ENTITY ns_adobe_xpath "http://ns.adobe.com/XPath/1.0/">
]>
<svg version="1.1" id="Шар_1" xmlns:x="&ns_extend;" xmlns:i="&ns_ai;" xmlns:graph="&ns_graphs;"
	 xmlns="http://www.w3.org/2000/svg" xmlns:xlink="http://www.w3.org/1999/xlink" x="0px" y="0px" width="82.609px"
	 height="107.049px" viewBox="0 0 82.609 107.049" enable-background="new 0 0 82.609 107.049" xml:space="preserve">
<metadata>
	<sfw  xmlns="&ns_sfw;">
		<slices></slices>
		<sliceSourceBounds  height="107.62" width="82.609" y="-362.184" x="565.575" bottomLeftOrigin="true"></sliceSourceBounds>
	</sfw>
</metadata>
<path fill="#005066" d="M30.479,54.305V38.779c0-0.725-0.373-1.405-0.966-1.8c-1.428-0.944-2.262-2.525-2.262-4.216V16.667
	c0-6.786,5.533-12.319,12.318-12.319h3.47c6.785,0,12.319,5.533,12.319,12.319v16.096c0,1.691-0.856,3.272-2.262,4.216
	c-0.615,0.395-0.967,1.076-0.967,1.8v15.525c0,1.098,0.637,2.108,1.625,2.591c2.043,0.988,12.67,6.368,22.464,14.427
	c1.296,1.076,2.043,2.657,2.043,4.348v11.023c0,1.208,0.966,2.174,2.173,2.174c1.208,0,2.175-0.966,2.175-2.174V75.67
	c0-3.008-1.317-5.818-3.623-7.707c-9.224-7.576-19.148-12.868-22.509-14.559V39.855c2.043-1.779,3.229-4.348,3.229-7.115V16.667
	C59.706,7.466,52.24,0,43.039,0h-3.47c-9.2,0-16.666,7.466-16.666,16.667v16.096c0,2.745,1.186,5.336,3.228,7.115v13.548
	c-3.338,1.691-13.285,6.983-22.508,14.559C1.317,69.873,0,72.685,0,75.692v11.023c0,1.207,0.966,2.174,2.174,2.174
	s2.174-0.967,2.174-2.174V75.692c0-1.691,0.747-3.271,2.042-4.348c9.794-8.06,20.443-13.417,22.464-14.428
	C29.842,56.413,30.479,55.402,30.479,54.305z"/>
<path fill="#008BBC" d="M46.618,56.588c-1.207,0-2.174,0.967-2.174,2.175c0,0.922-0.396,1.734-1.01,2.305
	c-0.132,0.088-0.264,0.176-0.373,0.308c-0.506,0.33-1.12,0.55-1.757,0.55c-1.735,0-3.162-1.406-3.162-3.162
	c0-1.208-0.967-2.175-2.174-2.175c-1.208,0-2.175,0.967-2.175,2.175c0,1.777,0.615,3.403,1.67,4.698l-1.604,37.264
	c-0.022,0.638,0.241,1.274,0.725,1.714l5.117,4.61c0.416,0.374,0.943,0.571,1.448,0.571c0.527,0,1.055-0.197,1.449-0.571
	l5.183-4.677c0.483-0.438,0.747-1.054,0.725-1.712l-1.669-36.825c1.23-1.34,1.977-3.119,1.977-5.051
	C48.793,57.555,47.805,56.588,46.618,56.588z M41.106,102.504l-2.898-2.613l1.449-33.794c0.527,0.109,1.055,0.176,1.604,0.176
	c0.439,0,0.856-0.044,1.273-0.11l1.515,33.663L41.106,102.504z"/>
</svg>
