<?xml version="1.0" encoding="utf-8"?>
<!-- Generator: Adobe Illustrator 16.0.0, SVG Export Plug-In . SVG Version: 6.00 Build 0)  -->
<!DOCTYPE svg PUBLIC "-//W3C//DTD SVG 1.1//EN" "http://www.w3.org/Graphics/SVG/1.1/DTD/svg11.dtd" [
	<!ENTITY ns_extend "http://ns.adobe.com/Extensibility/1.0/">
	<!ENTITY ns_ai "http://ns.adobe.com/AdobeIllustrator/10.0/">
	<!ENTITY ns_graphs "http://ns.adobe.com/Graphs/1.0/">
	<!ENTITY ns_vars "http://ns.adobe.com/Variables/1.0/">
	<!ENTITY ns_imrep "http://ns.adobe.com/ImageReplacement/1.0/">
	<!ENTITY ns_sfw "http://ns.adobe.com/SaveForWeb/1.0/">
	<!ENTITY ns_custom "http://ns.adobe.com/GenericCustomNamespace/1.0/">
	<!ENTITY ns_adobe_xpath "http://ns.adobe.com/XPath/1.0/">
]>
<svg version="1.1" id="Шар_1" xmlns:x="&ns_extend;" xmlns:i="&ns_ai;" xmlns:graph="&ns_graphs;"
	 xmlns="http://www.w3.org/2000/svg" xmlns:xlink="http://www.w3.org/1999/xlink" x="0px" y="0px" width="103.28px"
	 height="103.279px" viewBox="0 0 103.28 103.279" enable-background="new 0 0 103.28 103.279" xml:space="preserve">
<metadata>
	<sfw  xmlns="&ns_sfw;">
		<slices></slices>
		<sliceSourceBounds  height="103.28" width="103.28" y="-317.69" x="393.876" bottomLeftOrigin="true"></sliceSourceBounds>
	</sfw>
</metadata>
<path fill="#005066" d="M102.835,71.041l-4.04-4.04l4.041-4.04c0.592-0.592,0.592-1.553,0-2.145l-4.041-4.04l4.041-4.04
	c0.592-0.592,0.592-1.553-0.001-2.145l-4.04-4.039l4.04-4.041c0.593-0.592,0.593-1.553,0-2.144l-9.201-9.202
	c-0.285-0.285-0.67-0.444-1.072-0.444s-0.788,0.159-1.072,0.444l-4.028,4.028L84.5,32.232l4.028-4.027
	c0.592-0.593,0.592-1.553,0-2.145l-9.447-9.447c-0.592-0.592-1.552-0.592-2.144,0l-4.04,4.041l-4.041-4.041l-0.782-0.782l4.04-4.04
	c0.593-0.592,0.593-1.553,0-2.145l-9.202-9.201C62.628,0.16,62.243,0,61.84,0c-0.401,0-0.787,0.16-1.071,0.444l-4.04,4.04
	l-4.041-4.04C52.404,0.16,52.018,0,51.616,0s-0.787,0.16-1.071,0.444l-4.04,4.04l-4.041-4.04C42.179,0.16,41.793,0,41.391,0
	c-0.401,0-0.787,0.16-1.071,0.444l-4.04,4.04l-4.041-4.04C31.955,0.16,31.569,0,31.167,0c-0.402,0-0.788,0.16-1.072,0.444
	l-4.04,4.04l-4.041-4.04C21.731,0.16,21.344,0,20.943,0c-0.402,0-0.788,0.16-1.071,0.444l-4.041,4.04l-4.041-4.04
	C11.506,0.16,11.12,0,10.718,0C10.316,0,9.93,0.16,9.647,0.444L0.444,9.646c-0.592,0.592-0.592,1.553,0,2.145l4.041,4.039
	l-4.041,4.041c-0.592,0.592-0.592,1.552,0,2.144l4.041,4.04l-4.041,4.041c-0.592,0.592-0.592,1.552,0,2.144l4.041,4.04L0.444,40.32
	c-0.592,0.592-0.592,1.552,0,2.144l4.041,4.04l-4.041,4.041c-0.592,0.592-0.592,1.552,0,2.144l4.041,4.04L0.444,60.77
	c-0.592,0.592-0.592,1.552,0,2.144l9.203,9.202c0.295,0.296,0.684,0.443,1.071,0.443s0.776-0.147,1.071-0.443l4.041-4.041
	l0.783,0.783l4.04,4.041l-4.04,4.041c-0.593,0.592-0.593,1.551,0,2.143l9.436,9.436c0.284,0.285,0.67,0.445,1.072,0.445
	c0.401,0,0.787-0.16,1.071-0.445l4.04-4.039l2.973,2.971l-4.041,4.041c-0.592,0.592-0.592,1.553,0,2.145l9.203,9.201
	c0.592,0.592,1.551,0.592,2.143,0l4.041-4.041l4.04,4.041c0.592,0.592,1.552,0.592,2.144,0l4.041-4.041l4.04,4.041
	c0.592,0.592,1.552,0.592,2.144,0L67,98.795l4.041,4.041c0.592,0.592,1.552,0.592,2.144,0l4.04-4.041l4.041,4.041
	c0.296,0.297,0.684,0.443,1.071,0.443s0.776-0.146,1.072-0.443l4.04-4.041l4.041,4.041c0.592,0.592,1.552,0.592,2.144,0l4.079-4.08
	c0.003-0.002,0.007-0.006,0.011-0.01l5.112-5.111c0.592-0.594,0.592-1.553,0-2.145l-4.041-4.041l4.041-4.039
	c0.592-0.592,0.592-1.553,0-2.145l-4.041-4.041l4.041-4.039C103.427,72.593,103.427,71.633,102.835,71.041z M95.58,76.154
	c-0.592,0.592-0.592,1.551,0,2.143l4.041,4.041l-4.041,4.041c-0.592,0.592-0.592,1.551,0,2.143l4.041,4.041l-3.01,3.01
	c-0.003,0.002-0.006,0.006-0.009,0.008l-4.04,4.041l-4.04-4.041c-0.296-0.297-0.685-0.443-1.072-0.443s-0.776,0.146-1.071,0.443
	l-4.041,4.041l-4.04-4.041c-0.592-0.592-1.552-0.592-2.144,0l-4.041,4.041l-4.04-4.041c-0.592-0.592-1.552-0.592-2.144,0
	l-4.04,4.041l-4.041-4.041c-0.592-0.592-1.552-0.592-2.144,0l-4.04,4.041l-4.041-4.041c-0.592-0.592-1.552-0.592-2.144,0
	l-4.04,4.041l-7.059-7.059l4.04-4.041c0.593-0.592,0.593-1.551,0-2.143l-4.04-4.041l4.04-4.041c0.593-0.592,0.593-1.551,0-2.143
	l-4.04-4.041l4.04-4.041c0.593-0.592,0.593-1.551,0-2.143l-4.04-4.041l4.04-4.041c0.593-0.592,0.593-1.551,0-2.143l-4.04-4.041
	l4.04-4.041c0.593-0.592,0.593-1.551,0-2.143l-4.04-4.041l7.059-7.059l4.04,4.041c0.284,0.284,0.67,0.443,1.071,0.443
	c0.402,0,0.788-0.159,1.072-0.443l4.041-4.041l4.04,4.041c0.284,0.284,0.669,0.443,1.071,0.443s0.788-0.159,1.072-0.443l4.041-4.041
	l4.04,4.041c0.284,0.284,0.67,0.443,1.071,0.443c0.402,0,0.788-0.159,1.072-0.443l4.04-4.041l4.041,4.041
	c0.284,0.284,0.669,0.443,1.071,0.443s0.788-0.159,1.072-0.443l4.04-4.041l4.041,4.041c0.283,0.284,0.669,0.443,1.071,0.443
	s0.788-0.159,1.072-0.443l4.04-4.041l7.059,7.059L95.58,45.48c-0.592,0.592-0.592,1.552,0,2.143l4.041,4.041l-4.041,4.041
	c-0.592,0.592-0.592,1.551,0,2.143l4.041,4.041L95.58,65.93c-0.592,0.592-0.592,1.551,0,2.143l4.041,4.041L95.58,76.154z"/>
<path fill="#F0FCFF" d="M32,20.654l-4.04-4.041c-0.285-0.284-0.67-0.443-1.072-0.443s-0.787,0.159-1.072,0.443l-9.201,9.203
	c-0.592,0.592-0.592,1.551,0,2.143L20.654,32l-4.04,4.041c-0.592,0.592-0.592,1.551,0,2.143l4.04,4.041l-4.04,4.04
	c-0.592,0.593-0.592,1.552,0,2.144l4.04,4.041l-4.04,4.04c-0.592,0.593-0.592,1.552,0,2.144l4.04,4.041l-2.969,2.969l-0.782-0.783
	c-0.285-0.285-0.67-0.444-1.072-0.444s-0.787,0.159-1.072,0.444l-4.04,4.041L3.66,61.842l4.04-4.041
	c0.592-0.592,0.592-1.552,0-2.144l-4.04-4.04l4.04-4.041c0.592-0.592,0.592-1.552,0-2.144l-4.04-4.04l4.04-4.041
	c0.592-0.592,0.592-1.552,0-2.144l-4.04-4.04l4.04-4.041c0.592-0.592,0.592-1.551,0-2.144l-4.04-4.04l4.04-4.041
	c0.592-0.592,0.592-1.551,0-2.143l-4.04-4.041l7.059-7.059l4.04,4.041c0.285,0.283,0.67,0.443,1.072,0.443s0.787-0.16,1.072-0.443
	l4.04-4.041l4.04,4.041c0.284,0.283,0.67,0.443,1.072,0.443s0.787-0.16,1.071-0.443l4.041-4.041l4.04,4.041
	c0.284,0.283,0.67,0.443,1.072,0.443c0.401,0,0.787-0.16,1.071-0.443l4.04-4.041l4.041,4.041c0.284,0.283,0.67,0.443,1.072,0.443
	c0.401,0,0.787-0.16,1.071-0.443l4.04-4.041l4.041,4.041c0.284,0.283,0.67,0.443,1.072,0.443c0.401,0,0.787-0.16,1.071-0.443
	l4.04-4.041l7.059,7.059l-4.04,4.04c-0.593,0.593-0.593,1.552,0,2.144l0.782,0.783l-2.969,2.969l-4.04-4.041
	c-0.284-0.284-0.67-0.443-1.071-0.443c-0.402,0-0.788,0.159-1.072,0.443l-4.04,4.041l-4.04-4.041
	c-0.285-0.284-0.67-0.443-1.072-0.443s-0.788,0.159-1.072,0.443l-4.04,4.041l-4.04-4.041c-0.285-0.284-0.67-0.443-1.072-0.443
	s-0.787,0.159-1.072,0.443L32,20.654z"/>
<g>
	<path fill="#BBF1FF" d="M32.247,69.961l-8.377-8.377c-0.046-0.046-0.094-0.086-0.143-0.125l-3.898-3.898l2.965-2.965l8.369,8.369
		c0.023,0.023,0.049,0.045,0.074,0.066l3.969,3.97L32.247,69.961z"/>
	<path fill="#BBF1FF" d="M32.234,59.748l-8.298-8.297c-0.021-0.025-0.043-0.051-0.066-0.074l-4.041-4.041l2.979-2.979l8.226,8.227
		c0.041,0.053,0.084,0.104,0.132,0.152l4.04,4.04L32.234,59.748z"/>
	<path fill="#BBF1FF" d="M32.248,49.51l-8.378-8.379c-0.049-0.048-0.101-0.09-0.153-0.131l-3.888-3.889l2.967-2.967l8.367,8.367
		c0.01,0.01,0.02,0.018,0.029,0.027l4.014,4.013L32.248,49.51z"/>
	<path fill="#BBF1FF" d="M32.236,39.297l-8.34-8.339c-0.009-0.01-0.017-0.021-0.026-0.03l-4.041-4.04l2.457-2.458l12.408,12.408
		L32.236,39.297z"/>
	<polygon fill="#BBF1FF" points="36.838,34.695 24.43,22.286 26.887,19.829 30.928,23.869 30.94,23.881 39.295,32.236 	"/>
	<path fill="#BBF1FF" d="M46.552,35.205L34.143,22.797l2.969-2.968l4.041,4.04c0.023,0.023,0.048,0.045,0.072,0.066l8.299,8.299
		L46.552,35.205z"/>
	<path fill="#BBF1FF" d="M56.78,35.203L44.372,22.795l2.965-2.966l4.04,4.04c0.038,0.038,0.078,0.074,0.12,0.107l8.254,8.255
		L56.78,35.203z"/>
	<path fill="#BBF1FF" d="M67.007,35.199L54.598,22.791l2.963-2.962l4.041,4.04c0.043,0.045,0.092,0.085,0.141,0.123l8.235,8.236
		L67.007,35.199z"/>
	<path fill="#BBF1FF" d="M77.234,35.197L64.826,22.789l2.96-2.96l4.04,4.04c0.051,0.051,0.106,0.097,0.163,0.14l8.217,8.217
		L77.234,35.197z"/>
	
		<rect x="75.019" y="22.869" transform="matrix(-0.7071 -0.7072 0.7072 -0.7071 119.228 99.3095)" fill="#BBF1FF" width="10.328" height="4.181"/>
	<path fill="#BBF1FF" d="M19.829,67.785l2.979-2.977l8.234,8.234c0.038,0.049,0.078,0.097,0.124,0.143l4.04,4.041l-2.973,2.973
		l-8.284-8.285c-0.026-0.029-0.052-0.06-0.079-0.088L19.829,67.785z"/>
	
		<rect x="19.801" y="78.078" transform="matrix(0.7071 0.7071 -0.7071 0.7071 64.0017 5.8349)" fill="#BBF1FF" width="10.314" height="4.192"/>
</g>
</svg>
