<?xml version="1.0" encoding="utf-8"?>
<!-- Generator: Adobe Illustrator 16.0.0, SVG Export Plug-In . SVG Version: 6.00 Build 0)  -->
<!DOCTYPE svg PUBLIC "-//W3C//DTD SVG 1.1//EN" "http://www.w3.org/Graphics/SVG/1.1/DTD/svg11.dtd">
<svg version="1.1" id="Шар_1" xmlns="http://www.w3.org/2000/svg" xmlns:xlink="http://www.w3.org/1999/xlink" x="0px" y="0px"
	 width="77px" height="80.473px" viewBox="0 0 77 80.473" enable-background="new 0 0 77 80.473" xml:space="preserve">
<g>
	<path fill="#005066" d="M76.531,30.981c0.511-0.989,0.594-2.108,0.247-3.162c-0.346-1.055-1.069-1.911-2.059-2.405l-8.893-4.513
		c-0.248-0.132-0.43-0.363-0.461-0.643l-1.549-9.849c-0.314-2.025-2.044-3.492-4.085-3.492c-0.215,0-0.445,0.017-0.658,0.05
		l-9.85,1.564c-0.279,0.05-0.56-0.049-0.758-0.247L41.434,1.22C40.659,0.428,39.606,0,38.501,0c-1.104,0-2.14,0.428-2.931,1.22
		l-7.05,7.049c-0.165,0.164-0.396,0.263-0.625,0.263c-0.05,0-0.099,0-0.133-0.016l-9.849-1.565
		c-0.214-0.033-0.444-0.049-0.659-0.049c-2.042,0-3.771,1.466-4.084,3.492l-1.548,9.849c-0.05,0.279-0.215,0.51-0.462,0.642
		l-8.894,4.513c-0.988,0.494-1.713,1.352-2.059,2.405c-0.346,1.054-0.247,2.175,0.247,3.162l4.53,8.878
		c0.13,0.247,0.13,0.543,0,0.79l-4.53,8.877c-0.511,0.989-0.593,2.108-0.247,3.162c0.346,1.055,1.07,1.911,2.059,2.405l8.894,4.512
		c0.247,0.132,0.429,0.363,0.462,0.643l1.548,9.85c0.312,2.025,2.042,3.492,4.084,3.492c0.215,0,0.445-0.018,0.659-0.051
		l9.849-1.563c0.28-0.05,0.561,0.049,0.758,0.246l7.05,7.05c0.773,0.79,1.827,1.219,2.931,1.219c1.104,0,2.143-0.429,2.933-1.219
		l7.049-7.05c0.197-0.197,0.478-0.296,0.757-0.246l9.85,1.563c0.214,0.033,0.444,0.051,0.659,0.051c2.042,0,3.771-1.467,4.084-3.492
		l1.548-9.85c0.051-0.279,0.215-0.511,0.462-0.643l8.895-4.512c0.987-0.494,1.711-1.351,2.059-2.405
		c0.346-1.054,0.246-2.173-0.247-3.162l-4.529-8.877c-0.132-0.247-0.132-0.543,0-0.79L76.531,30.981z M69.086,42.131l4.529,8.877
		c0.099,0.213,0.132,0.445,0.049,0.675c-0.064,0.231-0.229,0.411-0.444,0.511l-8.893,4.514c-1.188,0.592-2.01,1.744-2.207,3.045
		l-1.549,9.85c-0.065,0.462-0.527,0.807-1.005,0.725l-9.849-1.564c-0.214-0.033-0.429-0.049-0.659-0.049
		c-1.104,0-2.141,0.428-2.931,1.219l-7.001,7.049c-0.328,0.33-0.906,0.33-1.234,0l-7.05-7.049c-0.773-0.774-1.845-1.219-2.931-1.219
		c-0.215,0-0.445,0.016-0.659,0.049l-9.849,1.564c-0.478,0.082-0.939-0.263-1.005-0.725l-1.549-9.85
		c-0.198-1.301-1.038-2.453-2.206-3.045L3.75,52.194c-0.214-0.1-0.362-0.279-0.444-0.511c-0.066-0.229-0.05-0.462,0.05-0.675
		l4.528-8.877c0.609-1.187,0.609-2.586,0-3.773l-4.528-8.876c-0.1-0.214-0.132-0.444-0.05-0.676c0.065-0.23,0.23-0.411,0.444-0.51
		l8.895-4.513c1.186-0.592,2.008-1.746,2.206-3.046l1.549-9.849c0.065-0.461,0.527-0.808,1.005-0.725l9.849,1.565
		c0.214,0.031,0.428,0.048,0.659,0.048l0,0c1.103,0,2.141-0.428,2.931-1.218l7.033-7.033c0.329-0.329,0.905-0.329,1.235,0
		l7.049,7.049c0.774,0.792,1.828,1.22,2.932,1.22c0.214,0,0.445-0.018,0.659-0.05L59.6,10.18c0.478-0.083,0.923,0.262,1.005,0.724
		l1.548,9.849c0.197,1.301,1.037,2.454,2.206,3.047l8.896,4.513c0.214,0.099,0.361,0.281,0.444,0.51
		c0.082,0.23,0.049,0.461-0.05,0.677l-4.528,8.876C68.495,39.545,68.495,40.962,69.086,42.131z"/>
	<g>
		<path fill="#008BBC" d="M22.139,27.338l-0.581,3.34h0.872v3.31h-2.411v-3.31l0.871-3.34H22.139z"/>
		<path fill="#008BBC" d="M32.68,31.956c4.675,0,7.607,3.514,7.607,9.467c0,7.521-3.107,11.587-7.985,11.587
			c-2.585,0-4.88-1.162-6.389-3.252l2.235-2.439c0.93,1.451,2.498,2.322,4.212,2.322c2.584,0,4.238-2.178,4.297-5.895
			c-0.784,1.394-2.381,2.266-4.326,2.266c-4.065,0-7.174-2.992-7.174-6.883C25.158,35.121,28.411,31.956,32.68,31.956z
			 M28.875,39.129c0,2.09,1.713,3.774,3.805,3.774c2.09,0,3.804-1.684,3.804-3.774c0-2.091-1.742-3.892-3.804-3.892
			C30.618,35.238,28.875,37.009,28.875,39.129z"/>
		<path fill="#008BBC" d="M51.523,35.15h-9.379v-3.543h15.507L47.428,52.226h-4.414L51.523,35.15z"/>
	</g>
</g>
</svg>
