<?xml version="1.0" encoding="utf-8"?>
<!-- Generator: Adobe Illustrator 16.0.0, SVG Export Plug-In . SVG Version: 6.00 Build 0)  -->
<!DOCTYPE svg PUBLIC "-//W3C//DTD SVG 1.1//EN" "http://www.w3.org/Graphics/SVG/1.1/DTD/svg11.dtd" [
	<!ENTITY ns_extend "http://ns.adobe.com/Extensibility/1.0/">
	<!ENTITY ns_ai "http://ns.adobe.com/AdobeIllustrator/10.0/">
	<!ENTITY ns_graphs "http://ns.adobe.com/Graphs/1.0/">
	<!ENTITY ns_vars "http://ns.adobe.com/Variables/1.0/">
	<!ENTITY ns_imrep "http://ns.adobe.com/ImageReplacement/1.0/">
	<!ENTITY ns_sfw "http://ns.adobe.com/SaveForWeb/1.0/">
	<!ENTITY ns_custom "http://ns.adobe.com/GenericCustomNamespace/1.0/">
	<!ENTITY ns_adobe_xpath "http://ns.adobe.com/XPath/1.0/">
]>
<svg version="1.1" id="Шар_1" xmlns:x="&ns_extend;" xmlns:i="&ns_ai;" xmlns:graph="&ns_graphs;"
	 xmlns="http://www.w3.org/2000/svg" xmlns:xlink="http://www.w3.org/1999/xlink" x="0px" y="0px" width="109.654px"
	 height="114.648px" viewBox="0 0 109.654 114.648" enable-background="new 0 0 109.654 114.648" xml:space="preserve">
<metadata>
	<sfw  xmlns="&ns_sfw;">
		<slices></slices>
		<sliceSourceBounds  height="114.648" width="109.654" y="-612.43" x="507.644" bottomLeftOrigin="true"></sliceSourceBounds>
	</sfw>
</metadata>
<path fill="#005066" d="M92.964,85.981c0.101-0.566,0.438-1.033,0.927-1.289l12.784-6.488c1.289-0.644,2.251-1.768,2.711-3.166
	c0.448-1.365,0.331-2.844-0.328-4.165l-6.508-12.752c-0.263-0.495-0.263-1.096,0.004-1.598l6.482-12.727
	c0.667-1.293,0.782-2.77,0.325-4.161c-0.457-1.398-1.419-2.521-2.708-3.165l-12.782-6.486c-0.533-0.286-0.87-0.764-0.935-1.314
	l-2.221-14.135c-0.412-2.663-2.673-4.595-5.377-4.595c-0.284,0-0.585,0.023-0.871,0.066l-14.151,2.249
	c-0.507,0.092-1.12-0.096-1.521-0.496L58.688,1.605C57.674,0.569,56.305,0,54.831,0c-1.454,0-2.825,0.57-3.861,1.606l-10.13,10.13
	c-0.332,0.334-0.789,0.525-1.252,0.525c-0.086,0-0.198,0-0.316-0.037L25.164,9.983c-0.263-0.042-0.57-0.065-0.867-0.065
	c-2.704,0-4.965,1.933-5.375,4.595l-2.226,14.155c-0.099,0.562-0.434,1.027-0.922,1.286l-12.79,6.49
	c-1.291,0.646-2.253,1.77-2.71,3.166c-0.447,1.369-0.332,2.85,0.326,4.165L7.108,56.53c0.262,0.496,0.262,1.095-0.003,1.597
	l-6.507,12.75c-0.665,1.289-0.78,2.767-0.324,4.162c0.457,1.396,1.419,2.52,2.707,3.164l12.785,6.486
	c0.521,0.277,0.867,0.766,0.932,1.311l2.224,14.135c0.41,2.664,2.67,4.597,5.375,4.597c0.293,0,0.601-0.023,0.866-0.066
	l14.156-2.246c0.089-0.016,0.188-0.024,0.287-0.024c0.454,0,0.904,0.188,1.233,0.519l10.13,10.132
	c1.016,1.035,2.386,1.604,3.861,1.604c1.453,0,2.823-0.569,3.858-1.604l10.129-10.132c0.4-0.402,0.972-0.591,1.532-0.492
	l14.143,2.244c0.275,0.044,0.576,0.066,0.869,0.066c2.705,0,4.966-1.933,5.377-4.595L92.964,85.981z M89.265,85.448l-2.224,14.154
	c-0.133,0.92-1.054,1.616-2.021,1.459l-14.15-2.249c-0.283-0.043-0.568-0.063-0.869-0.063c-1.452,0-2.823,0.57-3.858,1.604
	l-10.06,10.13c-0.318,0.319-0.771,0.503-1.241,0.503c-0.47,0-0.923-0.183-1.242-0.501l-10.13-10.132
	c-1.021-1.02-2.427-1.604-3.858-1.604c-0.288,0-0.598,0.022-0.872,0.063l-14.151,2.25c-0.909,0.15-1.884-0.54-2.016-1.468
	l-2.224-14.144c-0.258-1.697-1.371-3.232-2.905-4.01L4.661,74.954c-0.403-0.187-0.715-0.539-0.883-1.012
	c-0.138-0.483-0.104-0.94,0.092-1.353l6.514-12.77c0.798-1.556,0.798-3.412,0-4.967L3.877,42.096
	c-0.221-0.466-0.252-0.934-0.098-1.365c0.118-0.428,0.449-0.812,0.897-1.02l12.766-6.479c1.558-0.776,2.643-2.273,2.906-4.006
	l2.225-14.157c0.131-0.921,1.063-1.623,2.021-1.458l14.148,2.249c1.708,0.254,3.482-0.296,4.727-1.54L53.577,4.211
	c0.638-0.636,1.846-0.634,2.481,0l10.129,10.132c1.211,1.236,2.93,1.82,4.734,1.539l14.149-2.246
	c0.091-0.016,0.188-0.023,0.285-0.023c0.836,0,1.58,0.632,1.73,1.47l2.226,14.166c0.26,1.695,1.371,3.23,2.901,4.01l12.784,6.483
	c0.4,0.185,0.712,0.536,0.883,1.009c0.155,0.43,0.126,0.884-0.086,1.351l-6.519,12.778c-0.821,1.536-0.838,3.381-0.048,4.943
	l6.509,12.755c0.219,0.467,0.249,0.934,0.097,1.365c-0.116,0.428-0.449,0.812-0.902,1.02L92.17,81.441
	C90.612,82.218,89.528,83.716,89.265,85.448z"/>
<path fill="#008BBC" d="M81.224,51.875c0.02-0.103,0.017-0.19,0.017-0.278c0-4.345-3.544-7.879-7.9-7.879H62.402v-7.742
	c0-3.666-1.094-6.325-3.252-7.904c-1.339-0.988-2.999-1.489-4.937-1.489c-1.701,0-3.033,0.395-3.282,0.474
	c-0.767,0.243-1.281,0.946-1.281,1.749v9.253c0,6.596-7.546,9.107-8.406,9.372c-0.165,0.048-0.303,0.109-0.421,0.166l-0.27,0.13
	l-0.242-0.176c-0.746-0.541-1.602-0.827-2.475-0.827h-6.7c-2.269,0-4.114,1.847-4.114,4.117v23.124c0,2.27,1.846,4.116,4.114,4.116
	h6.7c0.966,0,1.896-0.346,2.688-0.999l0.318-0.263l0.318,0.263c1.45,1.196,3.189,1.828,5.029,1.828h22.676
	c5.22,0,8.697-2.863,9.302-7.658L81.224,51.875z M38.288,74.44h-7.58V50.434h7.58V74.44z M74.544,70.752
	c-0.145,1.177-0.581,4.518-5.655,4.518H46.214c-2.338,0-4.239-1.902-4.239-4.24V51.085l0.354-0.108
	c1.127-0.343,11.007-3.617,11.007-12.895v-7.766l0.475-0.023c0.13-0.007,0.263-0.011,0.396-0.011c1.159,0,2.091,0.26,2.771,0.771
	c1.152,0.857,1.713,2.469,1.713,4.922v9.585c0,1.034,0.809,1.845,1.842,1.845h12.784c2.281,0,4.133,1.781,4.216,4.054L74.544,70.752
	z"/>
</svg>
