<?xml version="1.0" encoding="utf-8"?>
<!-- Generator: Adobe Illustrator 16.0.0, SVG Export Plug-In . SVG Version: 6.00 Build 0)  -->
<!DOCTYPE svg PUBLIC "-//W3C//DTD SVG 1.1//EN" "http://www.w3.org/Graphics/SVG/1.1/DTD/svg11.dtd" [
	<!ENTITY ns_extend "http://ns.adobe.com/Extensibility/1.0/">
	<!ENTITY ns_ai "http://ns.adobe.com/AdobeIllustrator/10.0/">
	<!ENTITY ns_graphs "http://ns.adobe.com/Graphs/1.0/">
	<!ENTITY ns_vars "http://ns.adobe.com/Variables/1.0/">
	<!ENTITY ns_imrep "http://ns.adobe.com/ImageReplacement/1.0/">
	<!ENTITY ns_sfw "http://ns.adobe.com/SaveForWeb/1.0/">
	<!ENTITY ns_custom "http://ns.adobe.com/GenericCustomNamespace/1.0/">
	<!ENTITY ns_adobe_xpath "http://ns.adobe.com/XPath/1.0/">
]>
<svg version="1.1" id="Capa_1" xmlns:x="&ns_extend;" xmlns:i="&ns_ai;" xmlns:graph="&ns_graphs;"
	 xmlns="http://www.w3.org/2000/svg" xmlns:xlink="http://www.w3.org/1999/xlink" x="0px" y="0px" width="595.28px"
	 height="594.892px" viewBox="123.304 0.194 595.28 594.892" enable-background="new 123.304 0.194 595.28 594.892"
	 xml:space="preserve">
<metadata>
	<sfw  xmlns="&ns_sfw;">
		<slices></slices>
		<sliceSourceBounds  height="594.892" width="595.28" y="0.055" x="122.86" bottomLeftOrigin="true"></sliceSourceBounds>
	</sfw>
</metadata>
<g>
	<g>
		<path fill="#8a8a8a" d="M718.301,469.678c1.261,9.664-1.684,18.066-8.823,25.208l-83.813,83.181
			c-3.781,4.201-8.717,7.775-14.809,10.713c-6.092,2.941-12.077,4.832-17.957,5.672c-0.42,0-1.684,0.107-3.785,0.317
			c-2.098,0.209-4.828,0.316-8.189,0.316c-7.984,0-20.904-1.365-38.759-4.097c-17.855-2.732-39.701-9.455-65.536-20.166
			c-25.842-10.713-55.144-26.785-87.912-48.209c-32.769-21.423-67.64-50.834-104.61-88.226
			c-29.408-28.988-53.775-56.716-73.101-83.183c-19.326-26.469-34.87-50.94-46.634-73.417
			c-11.765-22.477-20.587-42.853-26.469-61.128s-9.872-34.03-11.973-47.264s-2.941-23.632-2.521-31.194
			c0.421-7.562,0.631-11.763,0.631-12.604c0.84-5.882,2.73-11.868,5.671-17.96c2.941-6.092,6.513-11.028,10.714-14.81l83.813-83.813
			c5.882-5.882,12.604-8.822,20.166-8.822c5.462,0,10.293,1.575,14.494,4.726c4.201,3.151,7.772,7.037,10.713,11.658l67.43,127.927
			c3.781,6.723,4.831,14.074,3.15,22.057c-1.68,7.982-5.251,14.704-10.713,20.166L298.6,217.606c-0.84,0.84-1.575,2.205-2.205,4.096
			c-0.631,1.891-0.945,3.467-0.945,4.727c1.68,8.822,5.461,18.905,11.343,30.249c5.042,10.083,12.813,22.371,23.316,36.865
			c10.504,14.494,25.418,31.193,44.743,50.099c18.905,19.328,35.71,34.345,50.414,45.061c14.701,10.709,26.994,18.589,36.867,23.631
			c9.873,5.041,17.435,8.087,22.686,9.134l7.875,1.577c0.84,0,2.209-0.316,4.098-0.945c1.89-0.632,3.256-1.365,4.097-2.207
			l35.919-36.551c7.566-6.721,16.385-10.082,26.469-10.082c7.145,0,12.813,1.26,17.014,3.781h0.63l121.624,71.841
			C711.368,454.346,716.619,461.276,718.301,469.678z"/>
	</g>
</g>
</svg>
