<?xml version="1.0" encoding="utf-8"?>
<!-- Generator: Adobe Illustrator 16.0.0, SVG Export Plug-In . SVG Version: 6.00 Build 0)  -->
<!DOCTYPE svg PUBLIC "-//W3C//DTD SVG 1.1//EN" "http://www.w3.org/Graphics/SVG/1.1/DTD/svg11.dtd">
<svg version="1.1" id="Шар_1" xmlns="http://www.w3.org/2000/svg" xmlns:xlink="http://www.w3.org/1999/xlink" x="0px" y="0px"
	 width="105px" height="96.108px" viewBox="0 0 105 96.108" enable-background="new 0 0 105 96.108" xml:space="preserve">
<g>
	<g>
		<path fill="#008BBC" d="M73.426,63.527l-8.673-8.672c2.15-2.62,3.446-5.978,3.446-9.637c0-8.392-6.811-15.202-15.204-15.202
			c-8.399,0-15.202,6.811-15.202,15.202c0,8.393,6.803,15.204,15.202,15.204c3.66,0,7.009-1.287,9.631-3.438l8.673,8.664
			c0.588,0.59,1.538,0.59,2.127,0C74.016,65.066,74.016,64.11,73.426,63.527z"/>
		<path fill="#FFFFFF" d="M52.995,57.396c-6.72,0-12.184-5.462-12.184-12.177c0-6.714,5.464-12.184,12.184-12.184
			c6.716,0,12.186,5.47,12.186,12.184C65.181,51.934,59.711,57.396,52.995,57.396z"/>
	</g>
	<path fill="#005066" d="M56.945,0C43.879,0,31.66,5.151,22.542,14.506c-0.282,0.291-0.436,0.676-0.429,1.086
		c0.005,0.41,0.169,0.793,0.46,1.077c0.583,0.567,1.598,0.551,2.164-0.032C33.275,7.882,44.714,3.06,56.945,3.06
		c24.811,0,44.995,20.184,44.995,44.994c0,24.81-20.185,44.996-44.995,44.996c-24.81,0-44.993-20.186-44.993-44.996v-3.24
		l6.272,6.272c0.561,0.562,1.601,0.562,2.163,0c0.293-0.292,0.454-0.676,0.454-1.082s-0.161-0.79-0.454-1.083l-8.885-8.884
		c-0.585-0.584-1.578-0.584-2.163,0l-8.885,8.884c-0.606,0.607-0.606,1.558,0,2.164c0.562,0.562,1.603,0.562,2.165,0l6.271-6.272
		v3.24c0,26.498,21.558,48.055,48.054,48.055C83.443,96.108,105,74.551,105,48.053C105,21.557,83.443,0,56.945,0z"/>
</g>
</svg>
