<?xml version="1.0" encoding="utf-8"?>
<!-- Generator: Adobe Illustrator 16.0.0, SVG Export Plug-In . SVG Version: 6.00 Build 0)  -->
<!DOCTYPE svg PUBLIC "-//W3C//DTD SVG 1.1//EN" "http://www.w3.org/Graphics/SVG/1.1/DTD/svg11.dtd">
<svg version="1.1" id="Шар_1" xmlns="http://www.w3.org/2000/svg" xmlns:xlink="http://www.w3.org/1999/xlink" x="0px" y="0px"
	 width="83px" height="92.298px" viewBox="0 0 83 92.298" enable-background="new 0 0 83 92.298" xml:space="preserve">
<g>
	<path fill="#008BBC" d="M56.38,23.044c-0.184-0.566-0.686-0.97-1.278-1.027l-8.73-0.843l-3.499-8.042
		c-0.238-0.546-0.776-0.899-1.372-0.899s-1.134,0.353-1.373,0.899l-3.498,8.043l-8.73,0.842c-0.593,0.058-1.094,0.461-1.279,1.027
		c-0.184,0.566-0.014,1.188,0.433,1.583l6.566,5.812l-1.896,8.563c-0.129,0.581,0.099,1.183,0.581,1.534
		c0.472,0.342,1.134,0.375,1.638,0.079l7.559-4.45l7.558,4.449c0.503,0.296,1.168,0.263,1.638-0.079
		c0.482-0.35,0.712-0.952,0.582-1.534l-1.896-8.563l6.566-5.812C56.395,24.232,56.564,23.611,56.38,23.044z M46.738,28.782
		c-0.407,0.36-0.587,0.914-0.469,1.445l1.342,6.066l-5.353-3.152c-0.46-0.271-1.056-0.271-1.519,0l-5.352,3.152l1.343-6.066
		c0.117-0.531-0.062-1.083-0.47-1.445l-4.651-4.116l6.184-0.598c0.541-0.052,1.012-0.394,1.228-0.892L41.5,17.48l2.479,5.696
		c0.217,0.498,0.688,0.839,1.229,0.892l6.184,0.598L46.738,28.782z"/>
	<g>
		<polygon fill="#005066" points="41.538,57.525 41.538,57.526 41.538,57.525 		"/>
		<path fill="#005066" d="M83,24.75V8.836c0-0.825-0.672-1.496-1.496-1.496H67.341V1.496C67.341,0.671,66.67,0,65.845,0H17.155
			c-0.825,0-1.496,0.671-1.496,1.496V7.34H1.495C0.671,7.34,0,8.011,0,8.836V24.75c0,5.925,4.037,11.509,11.366,15.722
			c2.056,1.184,4.547,3.549,6.721,5.673l0.094,0.13c1.122,2.345,2.581,4.495,4.336,6.392c2.073,2.25,4.497,4.094,7.205,5.479
			l0.25,0.129v10.018c0,0.824,0.672,1.496,1.497,1.496h3.642v8.262h-9.23c-3.769,0-7.087,2.674-7.888,6.357l-1.321,6.077
			c-0.096,0.444,0.013,0.902,0.298,1.256c0.285,0.354,0.709,0.558,1.165,0.558h46.732c0.454,0,0.879-0.203,1.165-0.558
			c0.285-0.354,0.393-0.812,0.296-1.256l-1.32-6.077c-0.8-3.684-4.118-6.357-7.888-6.357h-9.23v-8.262h3.643
			c0.825,0,1.496-0.672,1.496-1.496V58.274l0.251-0.129c2.706-1.384,5.129-3.227,7.202-5.475c1.758-1.899,3.217-4.051,4.338-6.396
			l0.094-0.13c2.174-2.124,4.665-4.488,6.718-5.672C78.962,36.259,83,30.676,83,24.75z M15.216,39.504
			c-0.857-0.674-1.628-1.207-2.356-1.627c-6.362-3.656-9.867-8.319-9.867-13.127V10.333h12.667v24.805
			c0,1.312,0.1,2.636,0.297,3.935l0.177,1.153L15.216,39.504z M57.119,81.044c2.373,0,4.46,1.682,4.964,4l0.927,4.262H19.989
			l0.928-4.262c0.504-2.318,2.592-4,4.963-4H57.119z M38.103,78.05v-8.262h6.795v8.262H38.103z M50.034,66.796H32.965v-7.252
			l0.603,0.195c2.421,0.781,4.959,1.197,7.543,1.235c0.136,0.005,0.257,0.005,0.39,0.005c0.13-0.006,0.254,0,0.38-0.005
			c2.594-0.038,5.132-0.454,7.552-1.235l0.603-0.195V66.796z M64.349,35.138c0.001,3.333-0.701,6.545-2.085,9.547
			c-1.004,2.181-2.344,4.185-3.981,5.955c-2.089,2.265-4.568,4.058-7.369,5.323c-2.858,1.297-5.915,1.976-9.088,2.018
			c-0.109,0.005-0.18,0.006-0.25,0.006l-0.358-0.004c-3.212-0.044-6.271-0.723-9.132-2.02c-2.8-1.267-5.28-3.059-7.371-5.326
			c-1.634-1.767-2.972-3.77-3.979-5.952c-1.383-3.002-2.085-6.215-2.085-9.547V2.993h45.698V35.138z M70.138,37.88
			c-0.726,0.417-1.494,0.948-2.354,1.624l-0.917,0.722l0.177-1.153c0.196-1.296,0.297-2.619,0.297-3.934V10.333h12.667V24.75
			C80.008,29.558,76.502,34.221,70.138,37.88z"/>
	</g>
</g>
</svg>
