<?xml version="1.0" encoding="utf-8"?>
<!-- Generator: Adobe Illustrator 16.0.0, SVG Export Plug-In . SVG Version: 6.00 Build 0)  -->
<!DOCTYPE svg PUBLIC "-//W3C//DTD SVG 1.1//EN" "http://www.w3.org/Graphics/SVG/1.1/DTD/svg11.dtd">
<svg version="1.1" id="Шар_1" xmlns="http://www.w3.org/2000/svg" xmlns:xlink="http://www.w3.org/1999/xlink" x="0px" y="0px"
	 width="66px" height="85.982px" viewBox="0 0 66 85.982" enable-background="new 0 0 66 85.982" xml:space="preserve">
<g>
	<path fill="#005066" d="M24.351,43.386V30.982c0-0.579-0.298-1.123-0.771-1.438c-1.141-0.755-1.808-2.018-1.808-3.369v-12.86
		c0-5.421,4.421-9.842,9.842-9.842h2.772c5.421,0,9.843,4.421,9.843,9.842v12.86c0,1.351-0.685,2.614-1.808,3.369
		c-0.491,0.315-0.772,0.859-0.772,1.438v12.404c0,0.877,0.509,1.684,1.299,2.071c1.632,0.789,10.122,5.087,17.947,11.525
		c1.035,0.859,1.632,2.123,1.632,3.474v8.808c0,0.965,0.771,1.736,1.736,1.736S66,70.229,66,69.264v-8.808
		c0-2.403-1.053-4.648-2.895-6.157c-7.369-6.053-15.299-10.281-17.983-11.632V31.842c1.633-1.421,2.579-3.474,2.579-5.684V13.316
		C47.701,5.965,41.737,0,34.386,0h-2.772c-7.351,0-13.314,5.965-13.314,13.316v12.86c0,2.193,0.946,4.263,2.578,5.684v10.824
		c-2.667,1.352-10.614,5.58-17.982,11.631C1.053,55.824,0,58.07,0,60.475v8.807c0,0.964,0.771,1.736,1.736,1.736
		c0.966,0,1.737-0.772,1.737-1.736v-8.807c0-1.352,0.597-2.614,1.631-3.475c7.825-6.439,16.334-10.719,17.947-11.526
		C23.842,45.07,24.351,44.263,24.351,43.386z"/>
	<path fill="#008BBC" d="M37.245,45.211c-0.964,0-1.736,0.771-1.736,1.737c0,0.736-0.316,1.386-0.808,1.841
		c-0.104,0.07-0.21,0.141-0.298,0.246c-0.404,0.264-0.895,0.439-1.403,0.439c-1.387,0-2.526-1.123-2.526-2.526
		c0-0.966-0.772-1.737-1.736-1.737c-0.966,0-1.738,0.771-1.738,1.737c0,1.42,0.492,2.719,1.335,3.753l-1.281,29.771
		c-0.019,0.51,0.192,1.019,0.578,1.369l4.089,3.684c0.332,0.299,0.754,0.457,1.157,0.457c0.421,0,0.843-0.158,1.157-0.457
		l4.141-3.736c0.387-0.35,0.598-0.842,0.579-1.367L37.421,51C38.403,49.93,39,48.508,39,46.965
		C38.982,45.982,38.193,45.211,37.245,45.211z M32.842,81.895l-2.315-2.088l1.157-26.999c0.422,0.087,0.843,0.14,1.281,0.14
		c0.352,0,0.685-0.035,1.018-0.088l1.21,26.895L32.842,81.895z"/>
</g>
</svg>
