<?xml version="1.0" encoding="utf-8"?>
<!-- Generator: Adobe Illustrator 16.0.0, SVG Export Plug-In . SVG Version: 6.00 Build 0)  -->
<!DOCTYPE svg PUBLIC "-//W3C//DTD SVG 1.1//EN" "http://www.w3.org/Graphics/SVG/1.1/DTD/svg11.dtd">
<svg version="1.1" id="Шар_1" xmlns="http://www.w3.org/2000/svg" xmlns:xlink="http://www.w3.org/1999/xlink" x="0px" y="0px"
	 width="99px" height="31.769px" viewBox="0 0 99 31.769" enable-background="new 0 0 99 31.769" xml:space="preserve">
<g>
	<path fill="#009EE2" d="M44.328,20.687c0,1.632-2.646,3.693-5.91,3.693c-3.264,0-5.91-2.062-5.91-3.693V0H0v7.388h14.038L0,22.164
		v7.389h25.119v-7.389H11.082L25.119,7.388v13.299c0,6.119,5.954,11.082,13.299,11.082s13.299-4.963,13.299-11.082v-7.389
		L62.06,29.552h14.038l7.388-19.209l7.388,19.209H99L87.18,0h-7.389L69.448,25.119V0H62.06v15.515L51.717,0h-7.389V20.687z"/>
</g>
</svg>
