<?xml version="1.0" encoding="utf-8"?>
<!-- Generator: Adobe Illustrator 16.0.0, SVG Export Plug-In . SVG Version: 6.00 Build 0)  -->
<!DOCTYPE svg PUBLIC "-//W3C//DTD SVG 1.1//EN" "http://www.w3.org/Graphics/SVG/1.1/DTD/svg11.dtd">
<svg version="1.1" id="Шар_1" xmlns="http://www.w3.org/2000/svg" xmlns:xlink="http://www.w3.org/1999/xlink" x="0px" y="0px"
	 width="23px" height="24.506px" viewBox="0 0 23 24.506" enable-background="new 0 0 23 24.506" xml:space="preserve">
<g>
	<path d="M10.146,0v4.641C8.906,5.343,7.957,6.208,7.298,7.24c-0.659,1.033-1.155,2.126-1.479,3.281
		c-0.334,1.155-0.497,2.434-0.497,3.837h4.825v10.148H0v-6.312c0-3.796,0.359-6.694,1.078-8.695c0.728-2,1.831-3.826,3.311-5.476
		C5.878,2.372,7.794,1.031,10.146,0z"/>
	<path d="M23,0v4.641c-1.24,0.702-2.189,1.567-2.849,2.599c-0.658,1.033-1.154,2.126-1.484,3.281
		c-0.329,1.155-0.496,2.434-0.496,3.837H23v10.148H12.85v-6.312c0-3.796,0.359-6.694,1.083-8.695c0.723-2,1.826-3.826,3.311-5.476
		C18.728,2.372,20.647,1.031,23,0z"/>
</g>
</svg>
