<?xml version="1.0" encoding="utf-8"?>
<!-- Generator: Adobe Illustrator 16.0.0, SVG Export Plug-In . SVG Version: 6.00 Build 0)  -->
<!DOCTYPE svg PUBLIC "-//W3C//DTD SVG 1.1//EN" "http://www.w3.org/Graphics/SVG/1.1/DTD/svg11.dtd">
<svg version="1.1" id="Шар_1" xmlns="http://www.w3.org/2000/svg" xmlns:xlink="http://www.w3.org/1999/xlink" x="0px" y="0px"
	 width="89px" height="93.053px" viewBox="0 0 89 93.053" enable-background="new 0 0 89 93.053" xml:space="preserve">
<g>
	<path fill="#005066" d="M75.454,69.786c0.082-0.459,0.355-0.838,0.753-1.045l10.376-5.267c1.046-0.522,1.827-1.435,2.2-2.569
		c0.363-1.108,0.269-2.309-0.267-3.381l-5.282-10.351c-0.213-0.401-0.213-0.889,0.004-1.296l5.261-10.33
		c0.542-1.049,0.635-2.248,0.265-3.377c-0.371-1.135-1.152-2.046-2.198-2.569L76.19,24.336c-0.433-0.232-0.706-0.62-0.758-1.066
		l-1.803-11.473c-0.335-2.162-2.17-3.729-4.364-3.729c-0.23,0-0.475,0.019-0.707,0.054L57.072,9.947
		c-0.411,0.075-0.909-0.078-1.233-0.403l-8.204-8.241C46.811,0.462,45.7,0,44.503,0c-1.18,0-2.293,0.463-3.134,1.304l-8.222,8.222
		c-0.27,0.271-0.641,0.426-1.017,0.426c-0.069,0-0.16,0-0.257-0.03l-11.45-1.819c-0.213-0.034-0.463-0.053-0.703-0.053
		c-2.195,0-4.03,1.569-4.363,3.729l-1.807,11.489c-0.079,0.456-0.352,0.834-0.748,1.044L2.422,29.58
		c-1.048,0.524-1.828,1.437-2.199,2.57c-0.363,1.111-0.27,2.313,0.265,3.38L5.77,45.882c0.212,0.403,0.212,0.889-0.003,1.296
		L0.486,57.527c-0.539,1.046-0.633,2.245-0.263,3.378c0.371,1.133,1.151,2.045,2.197,2.568l10.377,5.265
		c0.423,0.226,0.704,0.621,0.756,1.063l1.805,11.473c0.333,2.162,2.167,3.73,4.363,3.73c0.237,0,0.487-0.019,0.702-0.054
		l11.49-1.823c0.072-0.012,0.153-0.02,0.233-0.02c0.368,0,0.733,0.152,1.001,0.421l8.222,8.224c0.824,0.84,1.937,1.301,3.134,1.301
		c1.18,0,2.292-0.461,3.132-1.301l8.221-8.224c0.325-0.327,0.789-0.479,1.244-0.399l11.479,1.821
		c0.224,0.036,0.468,0.054,0.705,0.054c2.196,0,4.031-1.568,4.364-3.729L75.454,69.786z M72.452,69.354l-1.805,11.488
		c-0.108,0.746-0.855,1.312-1.641,1.184l-11.484-1.825c-0.23-0.035-0.462-0.052-0.706-0.052c-1.179,0-2.291,0.463-3.132,1.303
		l-8.164,8.222c-0.259,0.259-0.626,0.408-1.008,0.408c-0.381,0-0.749-0.148-1.008-0.407l-8.222-8.223
		c-0.829-0.828-1.97-1.303-3.132-1.303c-0.234,0-0.485,0.019-0.708,0.052l-11.486,1.826c-0.737,0.122-1.528-0.438-1.636-1.191
		l-1.805-11.479c-0.209-1.377-1.113-2.623-2.358-3.254L3.784,60.836c-0.327-0.152-0.58-0.438-0.717-0.821
		c-0.111-0.393-0.084-0.764,0.074-1.099l5.287-10.364c0.647-1.263,0.647-2.77,0-4.031L3.147,34.167
		c-0.179-0.378-0.204-0.758-0.079-1.108c0.096-0.347,0.364-0.659,0.729-0.828l10.361-5.258c1.264-0.63,2.145-1.846,2.358-3.251
		l1.806-11.491c0.106-0.748,0.863-1.317,1.641-1.184l11.483,1.826c1.387,0.206,2.826-0.24,3.837-1.25l8.203-8.206
		c0.518-0.516,1.498-0.514,2.014,0l8.222,8.224c0.982,1.003,2.378,1.478,3.843,1.249l11.484-1.823
		c0.073-0.013,0.152-0.019,0.231-0.019c0.678,0,1.282,0.513,1.404,1.193l1.807,11.498c0.21,1.376,1.112,2.622,2.354,3.255
		l10.376,5.262c0.325,0.15,0.578,0.435,0.717,0.819c0.126,0.349,0.103,0.717-0.07,1.096l-5.29,10.372
		c-0.667,1.247-0.681,2.744-0.039,4.012l5.283,10.353c0.177,0.379,0.202,0.758,0.078,1.108c-0.095,0.347-0.364,0.658-0.732,0.827
		l-10.358,5.26C73.545,66.731,72.666,67.948,72.452,69.354z"/>
	<path fill="#008BBC" d="M65.925,42.104c0.016-0.083,0.014-0.154,0.014-0.226c0-3.526-2.877-6.395-6.413-6.395h-8.877v-6.284
		c0-2.975-0.888-5.134-2.64-6.416c-1.087-0.802-2.434-1.208-4.007-1.208c-1.381,0-2.462,0.32-2.664,0.384
		c-0.622,0.197-1.04,0.768-1.04,1.42v7.51c0,5.354-6.124,7.392-6.822,7.607c-0.134,0.039-0.246,0.089-0.342,0.135l-0.219,0.105
		l-0.196-0.143c-0.605-0.439-1.3-0.671-2.009-0.671h-5.438c-1.841,0-3.339,1.499-3.339,3.341v18.768
		c0,1.843,1.498,3.342,3.339,3.342h5.438c0.784,0,1.538-0.281,2.182-0.811l0.258-0.214l0.259,0.214
		c1.177,0.971,2.589,1.483,4.082,1.483h18.404c4.236,0,7.06-2.324,7.55-6.216L65.925,42.104z M31.077,60.418h-6.152V40.934h6.152
		V60.418z M60.503,57.425c-0.117,0.955-0.472,3.667-4.59,3.667H37.509c-1.897,0-3.44-1.545-3.44-3.441V41.463l0.288-0.088
		c0.914-0.278,8.934-2.936,8.934-10.466v-6.303l0.385-0.019c0.105-0.005,0.213-0.008,0.322-0.008c0.94,0,1.696,0.21,2.248,0.626
		c0.936,0.696,1.391,2.004,1.391,3.995v7.78c0,0.839,0.656,1.497,1.495,1.497h10.376c1.852,0,3.354,1.446,3.422,3.29L60.503,57.425z
		"/>
</g>
</svg>
