<?xml version="1.0" encoding="utf-8"?>
<!-- Generator: Adobe Illustrator 16.0.0, SVG Export Plug-In . SVG Version: 6.00 Build 0)  -->
<!DOCTYPE svg PUBLIC "-//W3C//DTD SVG 1.1//EN" "http://www.w3.org/Graphics/SVG/1.1/DTD/svg11.dtd">
<svg version="1.1" id="Шар_1" xmlns="http://www.w3.org/2000/svg" xmlns:xlink="http://www.w3.org/1999/xlink" x="0px" y="0px"
	 width="242px" height="77.657px" viewBox="0 0 242 77.657" enable-background="new 0 0 242 77.657" xml:space="preserve">
<g>
	<path fill="#009EE2" d="M108.358,50.567c0,3.99-6.469,9.029-14.447,9.029c-7.979,0-14.448-5.039-14.448-9.029V0H0v18.06h34.314
		L0,54.178v18.061h61.403V54.178H27.09L61.403,18.06v32.507c0,14.961,14.555,27.09,32.508,27.09s32.507-12.129,32.507-27.09v-18.06
		l25.284,39.731h34.313l18.06-46.956l18.06,46.956H242L213.105,0h-18.061l-25.283,61.403V0h-18.06v37.925L126.418,0h-18.06V50.567z"
		/>
</g>
</svg>
