<?xml version="1.0" encoding="utf-8"?>
<!-- Generator: Adobe Illustrator 16.0.0, SVG Export Plug-In . SVG Version: 6.00 Build 0)  -->
<!DOCTYPE svg PUBLIC "-//W3C//DTD SVG 1.1//EN" "http://www.w3.org/Graphics/SVG/1.1/DTD/svg11.dtd">
<svg version="1.1" id="Шар_1" xmlns="http://www.w3.org/2000/svg" xmlns:xlink="http://www.w3.org/1999/xlink" x="0px" y="0px"
	 width="87px" height="87px" viewBox="0 0 87 87" enable-background="new 0 0 87 87" xml:space="preserve">
<g>
	<path fill="#005066" d="M86.625,59.843l-3.403-3.404l3.404-3.402c0.499-0.499,0.499-1.309,0-1.807l-3.404-3.403l3.404-3.403
		c0.499-0.499,0.499-1.308-0.001-1.807l-3.403-3.402l3.403-3.404c0.5-0.499,0.5-1.308,0-1.806l-7.75-7.751
		c-0.24-0.24-0.564-0.375-0.903-0.375s-0.664,0.134-0.903,0.375l-3.394,3.393l-2.494-2.495l3.394-3.393
		c0.498-0.499,0.498-1.308,0-1.806l-7.958-7.958c-0.499-0.499-1.308-0.499-1.806,0l-3.403,3.404l-3.404-3.404l-0.659-0.659
		l3.403-3.403c0.499-0.499,0.499-1.308,0-1.806l-7.752-7.751C52.756,0.135,52.432,0,52.093,0s-0.663,0.135-0.903,0.374l-3.402,3.403
		l-3.404-3.403C44.144,0.135,43.818,0,43.479,0s-0.663,0.135-0.902,0.374l-3.403,3.403L35.77,0.374C35.53,0.135,35.205,0,34.866,0
		c-0.338,0-0.663,0.135-0.902,0.374l-3.403,3.403l-3.403-3.403C26.918,0.135,26.593,0,26.255,0c-0.339,0-0.664,0.135-0.903,0.374
		l-3.403,3.403l-3.404-3.403C18.306,0.135,17.979,0,17.642,0c-0.339,0-0.664,0.135-0.902,0.374l-3.404,3.403L9.931,0.374
		C9.692,0.135,9.367,0,9.028,0S8.365,0.135,8.126,0.374L0.374,8.126c-0.499,0.499-0.499,1.308,0,1.806l3.404,3.402l-3.404,3.404
		c-0.499,0.499-0.499,1.307,0,1.806l3.404,3.403l-3.404,3.404c-0.499,0.499-0.499,1.307,0,1.806l3.404,3.403l-3.404,3.404
		c-0.499,0.499-0.499,1.307,0,1.806l3.404,3.403l-3.404,3.404c-0.499,0.499-0.499,1.308,0,1.806l3.404,3.404l-3.404,3.404
		c-0.499,0.498-0.499,1.307,0,1.805l7.752,7.752c0.249,0.249,0.576,0.373,0.902,0.373c0.327,0,0.654-0.124,0.902-0.373l3.404-3.404
		l0.66,0.66l3.403,3.404l-3.403,3.404c-0.5,0.498-0.5,1.306,0,1.805l7.948,7.947c0.239,0.24,0.564,0.375,0.903,0.375
		c0.338,0,0.663-0.135,0.902-0.375l3.403-3.402l2.504,2.503l-3.404,3.403c-0.498,0.499-0.498,1.309,0,1.807l7.753,7.751
		c0.498,0.499,1.306,0.499,1.805,0l3.403-3.403l3.403,3.403c0.499,0.499,1.308,0.499,1.806,0l3.404-3.403l3.403,3.403
		c0.498,0.499,1.307,0.499,1.806,0l3.403-3.403l3.403,3.403c0.499,0.499,1.308,0.499,1.806,0l3.403-3.403l3.404,3.403
		C68.704,86.875,69.031,87,69.357,87c0.327,0,0.654-0.124,0.903-0.374l3.403-3.403l3.404,3.403c0.498,0.499,1.307,0.499,1.806,0
		l3.436-3.437c0.003-0.002,0.006-0.006,0.009-0.008l4.307-4.307c0.499-0.5,0.499-1.308,0-1.807l-3.403-3.403l3.403-3.402
		c0.499-0.499,0.499-1.308,0-1.807l-3.403-3.404l3.403-3.402C87.124,61.15,87.124,60.341,86.625,59.843z M80.514,64.15
		c-0.499,0.498-0.499,1.307,0,1.805l3.403,3.404l-3.403,3.404c-0.499,0.498-0.499,1.307,0,1.805l3.403,3.404l-2.535,2.535
		c-0.002,0.002-0.005,0.004-0.008,0.006l-3.402,3.404l-3.403-3.404c-0.25-0.25-0.577-0.373-0.903-0.373
		c-0.327,0-0.654,0.123-0.902,0.373l-3.404,3.404l-3.403-3.404c-0.498-0.498-1.307-0.498-1.806,0l-3.404,3.404l-3.402-3.404
		c-0.499-0.498-1.308-0.498-1.806,0l-3.403,3.404l-3.404-3.404c-0.499-0.498-1.308-0.498-1.806,0l-3.403,3.404l-3.404-3.404
		c-0.498-0.498-1.307-0.498-1.806,0l-3.403,3.404l-5.945-5.945l3.403-3.404c0.499-0.498,0.499-1.307,0-1.805l-3.403-3.404
		l3.403-3.404c0.499-0.498,0.499-1.307,0-1.805l-3.403-3.404l3.403-3.404c0.499-0.498,0.499-1.306,0-1.805l-3.403-3.404l3.403-3.403
		c0.499-0.499,0.499-1.306,0-1.805l-3.403-3.404l3.403-3.404c0.499-0.499,0.499-1.307,0-1.805l-3.403-3.404l5.945-5.946l3.403,3.404
		c0.239,0.239,0.564,0.374,0.902,0.374c0.339,0,0.664-0.134,0.903-0.374l3.404-3.404l3.403,3.404
		c0.239,0.239,0.563,0.374,0.902,0.374s0.664-0.134,0.903-0.374l3.404-3.404l3.403,3.404c0.239,0.239,0.563,0.374,0.902,0.374
		s0.663-0.134,0.903-0.374l3.402-3.404l3.404,3.404c0.239,0.239,0.563,0.374,0.902,0.374s0.664-0.134,0.903-0.374l3.403-3.404
		l3.404,3.404c0.238,0.239,0.563,0.374,0.902,0.374s0.664-0.134,0.903-0.374l3.403-3.404l5.945,5.946l-3.403,3.404
		c-0.499,0.499-0.499,1.308,0,1.805l3.403,3.404l-3.403,3.404c-0.499,0.499-0.499,1.306,0,1.805l3.403,3.403l-3.403,3.404
		c-0.499,0.499-0.499,1.307,0,1.805l3.403,3.404L80.514,64.15z"/>
	<path fill="#F0FCFF" d="M26.955,17.398l-3.403-3.404c-0.24-0.24-0.563-0.374-0.903-0.374c-0.339,0-0.662,0.134-0.902,0.374
		l-7.751,7.752c-0.499,0.499-0.499,1.306,0,1.805l3.403,3.404l-3.403,3.404c-0.499,0.499-0.499,1.306,0,1.805l3.403,3.404
		l-3.403,3.403c-0.499,0.5-0.499,1.307,0,1.806l3.403,3.404l-3.403,3.403c-0.499,0.499-0.499,1.308,0,1.806l3.403,3.404
		l-2.501,2.501l-0.659-0.66c-0.24-0.24-0.564-0.374-0.903-0.374s-0.663,0.134-0.903,0.374L9.028,58.04l-5.945-5.946l3.403-3.404
		c0.498-0.498,0.498-1.307,0-1.805L3.083,43.48l3.403-3.404c0.498-0.499,0.498-1.307,0-1.806l-3.403-3.403l3.403-3.404
		c0.498-0.499,0.498-1.307,0-1.806l-3.403-3.403l3.403-3.404c0.498-0.499,0.498-1.307,0-1.806l-3.403-3.403l3.403-3.404
		c0.498-0.499,0.498-1.306,0-1.805L3.083,9.029l5.945-5.946l3.403,3.404c0.24,0.238,0.564,0.374,0.903,0.374
		s0.663-0.135,0.903-0.374l3.403-3.404l3.403,3.404c0.239,0.238,0.564,0.374,0.903,0.374s0.663-0.135,0.902-0.374l3.404-3.404
		l3.402,3.404c0.24,0.238,0.564,0.374,0.903,0.374s0.663-0.135,0.902-0.374l3.403-3.404l3.404,3.404
		c0.239,0.238,0.564,0.374,0.903,0.374c0.338,0,0.663-0.135,0.902-0.374l3.403-3.404l3.404,3.404
		c0.239,0.238,0.564,0.374,0.903,0.374c0.338,0,0.663-0.135,0.902-0.374l3.403-3.404l5.945,5.946l-3.403,3.403
		c-0.499,0.5-0.499,1.307,0,1.806l0.659,0.66l-2.501,2.5l-3.403-3.404c-0.239-0.24-0.564-0.374-0.902-0.374
		c-0.339,0-0.664,0.134-0.903,0.374l-3.403,3.404l-3.402-3.404c-0.24-0.24-0.564-0.374-0.903-0.374s-0.664,0.134-0.903,0.374
		l-3.403,3.404l-3.403-3.404c-0.24-0.24-0.564-0.374-0.903-0.374s-0.663,0.134-0.903,0.374L26.955,17.398z"/>
	<g>
		<path fill="#BBF1FF" d="M27.163,58.933l-7.056-7.057c-0.039-0.039-0.079-0.072-0.12-0.105l-3.284-3.283L19.2,45.99l7.05,7.05
			c0.021,0.02,0.041,0.038,0.062,0.056l3.344,3.344L27.163,58.933z"/>
		<path fill="#BBF1FF" d="M27.152,50.33l-6.989-6.989c-0.019-0.021-0.036-0.043-0.056-0.062l-3.404-3.404l2.51-2.509l6.929,6.93
			c0.035,0.044,0.071,0.087,0.111,0.128l3.403,3.403L27.152,50.33z"/>
		<path fill="#BBF1FF" d="M27.164,41.706l-7.057-7.058c-0.042-0.041-0.085-0.076-0.13-0.11l-3.274-3.276l2.499-2.499l7.048,7.048
			c0.009,0.008,0.017,0.015,0.025,0.023l3.381,3.38L27.164,41.706z"/>
		<path fill="#BBF1FF" d="M27.154,33.103l-7.025-7.024c-0.007-0.008-0.014-0.018-0.021-0.025l-3.404-3.403l2.069-2.071
			l10.452,10.453L27.154,33.103z"/>
		<polygon fill="#BBF1FF" points="31.031,29.226 20.579,18.773 22.648,16.703 26.053,20.106 26.062,20.116 33.102,27.155 		"/>
		<path fill="#BBF1FF" d="M39.214,29.656L28.761,19.203l2.501-2.5l3.404,3.403c0.02,0.02,0.04,0.038,0.061,0.056l6.991,6.991
			L39.214,29.656z"/>
		<path fill="#BBF1FF" d="M47.829,29.654L37.377,19.202l2.498-2.499l3.403,3.403c0.031,0.032,0.065,0.062,0.101,0.091l6.953,6.954
			L47.829,29.654z"/>
		<path fill="#BBF1FF" d="M56.445,29.651L45.992,19.198l2.495-2.495l3.404,3.403c0.036,0.038,0.077,0.072,0.118,0.104l6.938,6.938
			L56.445,29.651z"/>
		<path fill="#BBF1FF" d="M65.06,29.649L54.607,19.197l2.493-2.494l3.403,3.403c0.043,0.043,0.09,0.082,0.137,0.118l6.922,6.922
			L65.06,29.649z"/>
		
			<rect x="63.193" y="19.264" transform="matrix(-0.7071 -0.7071 0.7071 -0.7071 100.4354 83.6538)" fill="#BBF1FF" width="8.701" height="3.522"/>
		<path fill="#BBF1FF" d="M16.703,57.1l2.509-2.507l6.937,6.936c0.032,0.041,0.065,0.082,0.104,0.12l3.403,3.404l-2.504,2.504
			l-6.979-6.979c-0.022-0.024-0.044-0.05-0.066-0.074L16.703,57.1z"/>
		
			<rect x="16.679" y="65.771" transform="matrix(0.7071 0.7072 -0.7072 0.7071 53.9182 4.9178)" fill="#BBF1FF" width="8.689" height="3.531"/>
	</g>
</g>
</svg>
